<svg width="35" height="34" viewBox="0 0 35 34" fill="none" xmlns="http://www.w3.org/2000/svg">
<path d="M12.9902 24.6242C12.5318 24.6242 12.1478 24.4689 11.8383 24.1582C11.5287 23.8476 11.3734 23.4636 11.3723 23.0063C11.3723 22.5479 11.5276 22.164 11.8383 21.8544C12.1489 21.5449 12.5329 21.3895 12.9902 21.3885H14.6081C15.0665 21.3885 15.451 21.5438 15.7616 21.8544C16.0722 22.165 16.227 22.549 16.2259 23.0063C16.2259 23.4647 16.0706 23.8492 15.76 24.1599C15.4494 24.4705 15.0654 24.6253 14.6081 24.6242H12.9902ZM11.3723 32.7135C9.13429 32.7135 7.22682 31.9245 5.64994 30.3466C4.07306 28.7686 3.28408 26.8612 3.283 24.6242V10.0634C2.39318 10.0634 1.6317 9.74684 0.998577 9.11371C0.365452 8.48059 0.0483503 7.71857 0.0472717 6.82767V3.59193C0.0472717 2.70211 0.364374 1.94063 0.998577 1.30751C1.63278 0.674382 2.39426 0.35728 3.283 0.356201H19.4617C20.3515 0.356201 21.1135 0.673303 21.7477 1.30751C22.3819 1.94171 22.6985 2.70319 22.6974 3.59193V6.82767C22.6974 7.71749 22.3808 8.47951 21.7477 9.11371C21.1146 9.74791 20.3526 10.0645 19.4617 10.0634V14.917C19.4617 15.8068 19.1451 16.5688 18.512 17.203C17.8789 17.8372 17.1168 18.1538 16.2259 18.1527H12.9902C12.5318 18.1527 12.1478 17.9974 11.8383 17.6868C11.5287 17.3762 11.3734 16.9922 11.3723 16.5349C11.3723 16.0765 11.5276 15.6925 11.8383 15.3829C12.1489 15.0734 12.5329 14.9181 12.9902 14.917H16.2259V10.0634H6.51874V24.6242C6.51874 25.9724 6.99061 27.1184 7.93437 28.0622C8.87812 29.0059 10.0241 29.4778 11.3723 29.4778C11.8577 29.4778 12.3231 29.4104 12.7686 29.2756C13.214 29.1407 13.6249 28.952 14.0014 28.7093C14.3519 28.4936 14.7294 28.4397 15.1339 28.5475C15.5383 28.6554 15.8484 28.8981 16.0641 29.2756C16.3068 29.6531 16.3742 30.064 16.2664 30.5084C16.1585 30.9527 15.9158 31.2968 15.5383 31.5406C14.9182 31.9181 14.2645 32.2082 13.5775 32.411C12.8904 32.6138 12.1554 32.7146 11.3723 32.7135ZM3.283 6.82767H19.4617V3.59193H3.283V6.82767ZM25.1242 27.8599C26.2567 27.8599 27.2139 27.4689 27.9959 26.687C28.7779 25.905 29.1689 24.9478 29.1689 23.8153C29.1689 22.6828 28.7779 21.7255 27.9959 20.9435C27.2139 20.1616 26.2567 19.7706 25.1242 19.7706C23.9917 19.7706 23.0345 20.1616 22.2525 20.9435C21.4705 21.7255 21.0795 22.6828 21.0795 23.8153C21.0795 24.9478 21.4705 25.905 22.2525 26.687C23.0345 27.4689 23.9917 27.8599 25.1242 27.8599ZM25.1242 31.0957C23.1019 31.0957 21.3832 30.3881 19.9681 28.973C18.553 27.5579 17.8449 25.8387 17.8438 23.8153C17.8438 21.7929 18.5519 20.0742 19.9681 18.6591C21.3842 17.244 23.1029 16.5359 25.1242 16.5349C27.1465 16.5349 28.8658 17.2429 30.282 18.6591C31.6981 20.0753 32.4057 21.794 32.4046 23.8153C32.4046 24.5163 32.3102 25.1904 32.1215 25.8376C31.9327 26.4847 31.6496 27.1049 31.2721 27.6981L34.5078 30.9339C34.8044 31.2305 34.9527 31.608 34.9527 32.0664C34.9527 32.5248 34.8044 32.9023 34.5078 33.1989C34.2112 33.4955 33.8337 33.6438 33.3753 33.6438C32.9169 33.6438 32.5394 33.4955 32.2428 33.1989L29.0071 29.9632C28.4139 30.3407 27.7937 30.6238 27.1465 30.8125C26.4994 31.0013 25.8253 31.0957 25.1242 31.0957Z" fill="#2B296D"/>
</svg>
