<svg width="36" height="34" viewBox="0 0 36 34" fill="none" xmlns="http://www.w3.org/2000/svg">
<path d="M31.0309 25.6729C31.7828 26.0488 32.4607 26.5103 33.0645 27.0571C33.6684 27.604 34.1811 28.2135 34.6026 28.8857C35.0242 29.5579 35.3546 30.2871 35.5938 31.0732C35.8331 31.8594 35.9527 32.6683 35.9527 33.5H33.7652C33.7652 32.5999 33.5943 31.7511 33.2525 30.9536C32.9107 30.1561 32.4436 29.4611 31.8512 28.8687C31.2587 28.2762 30.558 27.8034 29.7491 27.4502C28.9402 27.097 28.0914 26.9261 27.2027 26.9375C26.2913 26.9375 25.4425 27.1084 24.6563 27.4502C23.8702 27.792 23.1752 28.2591 22.5714 28.8516C21.9675 29.444 21.4947 30.1447 21.1529 30.9536C20.8111 31.7625 20.6402 32.6113 20.6402 33.5H18.4527C18.4527 32.6683 18.5667 31.8594 18.7945 31.0732C19.0224 30.2871 19.3528 29.5579 19.7857 28.8857C20.2187 28.2135 20.7371 27.604 21.3409 27.0571C21.9448 26.5103 22.6227 26.0488 23.3746 25.6729C22.5201 25.0576 21.8536 24.2886 21.3751 23.3657C20.8966 22.4429 20.6516 21.446 20.6402 20.375C20.6402 19.4749 20.8111 18.6261 21.1529 17.8286C21.4947 17.0311 21.9618 16.3361 22.5543 15.7437C23.1467 15.1512 23.8417 14.6784 24.6393 14.3252C25.4368 13.972 26.2913 13.8011 27.2027 13.8125C28.1028 13.8125 28.9516 13.9834 29.7491 14.3252C30.5466 14.667 31.2416 15.1341 31.8341 15.7266C32.4265 16.319 32.8993 17.0197 33.2525 17.8286C33.6057 18.6375 33.7766 19.4863 33.7652 20.375C33.7652 21.446 33.526 22.4429 33.0475 23.3657C32.5689 24.2886 31.8967 25.0576 31.0309 25.6729ZM27.2027 24.75C27.8066 24.75 28.3705 24.6361 28.8946 24.4082C29.4187 24.1803 29.8858 23.867 30.296 23.4683C30.7061 23.0695 31.0195 22.6081 31.2359 22.084C31.4524 21.5599 31.5663 20.9902 31.5777 20.375C31.5777 19.7712 31.4638 19.2072 31.2359 18.6831C31.0081 18.159 30.6948 17.6919 30.296 17.2817C29.8972 16.8716 29.4358 16.5583 28.9117 16.3418C28.3876 16.1253 27.818 16.0114 27.2027 16C26.5989 16 26.0349 16.1139 25.5108 16.3418C24.9867 16.5697 24.5196 16.883 24.1095 17.2817C23.6993 17.6805 23.386 18.1419 23.1695 18.666C22.9531 19.1901 22.8391 19.7598 22.8277 20.375C22.8277 20.9788 22.9417 21.5428 23.1695 22.0669C23.3974 22.591 23.7107 23.0581 24.1095 23.4683C24.5082 23.8784 24.9697 24.1917 25.4937 24.4082C26.0178 24.6247 26.5875 24.7386 27.2027 24.75ZM18.4527 26.1172C18.0881 26.5387 17.7577 26.9774 17.4615 27.4331C17.1653 27.8888 16.9032 28.3787 16.6754 28.9028C16.0715 28.2762 15.3424 27.792 14.4879 27.4502C13.6334 27.1084 12.7675 26.9375 11.8902 26.9375H5.32773V5.0625H3.14023V29.125H16.5899C16.4304 29.4782 16.2994 29.8371 16.1969 30.2017C16.0943 30.5662 16.0089 30.9365 15.9405 31.3125H0.952728V2.875H5.32773V0.6875H11.8902C12.8928 0.6875 13.8556 0.841309 14.7784 1.14893C15.7013 1.45654 16.5615 1.91797 17.359 2.5332C18.1451 1.91797 18.9996 1.45654 19.9225 1.14893C20.8453 0.841309 21.8137 0.6875 22.8277 0.6875H29.3902V2.875H33.7652V13.8125C33.1044 13.1631 32.3753 12.6219 31.5777 12.189V5.0625H29.3902V11.3687C29.0256 11.2661 28.6611 11.1921 28.2965 11.1465C27.9319 11.1009 27.5673 11.0781 27.2027 11.0781V2.875H22.8277C22.0302 2.875 21.2555 3.01172 20.5035 3.28516C19.7516 3.55859 19.068 3.96305 18.4527 4.49854V26.1172ZM16.2652 25.895V4.49854C15.65 3.97445 14.9664 3.57568 14.2144 3.30225C13.4625 3.02881 12.6878 2.88639 11.8902 2.875H7.51523V24.75H11.8902C12.6536 24.75 13.4055 24.8468 14.1461 25.0405C14.8866 25.2342 15.593 25.519 16.2652 25.895Z" fill="#2B296D"/>
</svg>
