<svg width="35" height="34" viewBox="0 0 35 34" fill="none" xmlns="http://www.w3.org/2000/svg">
<path d="M8.77126 13.1719C9.93159 13.1719 11.0444 12.7109 11.8649 11.8905M8.77126 13.1719C7.61094 13.1719 6.49814 12.7109 5.67767 11.8905M8.77126 13.1719V16.4531M11.8649 11.8905C12.6853 11.07 13.1463 9.9572 13.1463 8.79688M11.8649 11.8905L14.1846 14.2102M13.1463 8.79688C13.1463 7.63655 12.6853 6.52375 11.8649 5.70328M13.1463 8.79688H16.4275M11.8649 5.70328C11.0444 4.88281 9.93159 4.42188 8.77126 4.42188M11.8649 5.70328L14.1846 3.38354M8.77126 4.42188C7.61094 4.42188 6.49814 4.88281 5.67767 5.70328M8.77126 4.42188V1.14062M5.67767 5.70328C4.8572 6.52375 4.39626 7.63655 4.39626 8.79688M5.67767 5.70328L3.35793 3.38354M4.39626 8.79688C4.39626 9.9572 4.8572 11.07 5.67767 11.8905M4.39626 8.79688H1.11501M5.67767 11.8905L3.35793 14.2102M8.0421 1.14062H9.50043M13.6698 2.86729L14.7008 3.89833M16.4275 8.06771V9.52604M14.7008 13.6954L13.6698 14.7265M9.50043 16.4531H8.0421M3.87272 14.7265L2.84168 13.6954M1.11501 9.52604V8.06771M2.84168 3.89833L3.87272 2.86729M26.4156 12.7708C27.3659 13.5767 28.1374 14.5723 28.6806 15.6937C29.2238 16.815 29.5267 18.0375 29.5699 19.2828C29.6132 20.5281 29.3958 21.7686 28.9317 22.925C28.4677 24.0814 27.7671 25.128 26.875 25.9979C25.1316 27.6997 22.7919 28.6524 20.3555 28.6524C17.9192 28.6524 15.5795 27.6997 13.8361 25.9979C12.7915 24.9756 12.0116 23.7143 11.564 22.3229" stroke="#2B296D" stroke-width="2.1875" stroke-linecap="round" stroke-linejoin="round"/>
<path d="M23.5063 15.6205C23.2575 15.8639 22.9232 16.0002 22.5751 16.0002C22.227 16.0002 21.8928 15.8639 21.644 15.6205L19.7861 13.7917C19.6639 13.6728 19.5668 13.5306 19.5005 13.3736C19.4342 13.2166 19.4001 13.0478 19.4001 12.8773C19.4001 12.7069 19.4342 12.5381 19.5005 12.3811C19.5668 12.224 19.6639 12.0819 19.7861 11.963L25.3744 6.47381C25.6236 6.23106 25.9577 6.09521 26.3055 6.09521C26.6534 6.09521 26.9875 6.23106 27.2367 6.47381L29.099 8.30401C29.2211 8.42292 29.3182 8.56509 29.3845 8.72214C29.4508 8.87918 29.485 9.04792 29.485 9.21839C29.485 9.38885 29.4508 9.55759 29.3845 9.71464C29.3182 9.87169 29.2211 10.0139 29.099 10.1328L23.5063 15.6205Z" stroke="#2B296D" stroke-width="2.1875" stroke-linecap="round" stroke-linejoin="round"/>
<path d="M27.9061 7.13583L31.6831 3.35583M31.6831 3.35583L29.5758 1.24854M31.6831 3.35583L33.7904 5.46312M8.40668 22.3229H15.7829M9.55584 32.8594H29.5758M20.0923 28.6448V32.8594" stroke="#2B296D" stroke-width="2.1875" stroke-linecap="round" stroke-linejoin="round"/>
</svg>
